<svg xmlns="http://www.w3.org/2000/svg" viewBox="0 0 48 48">
  <path fill="#4285F4" d="M24 9.5c-3.9 0-7.4 1.4-10.1 3.6l7.9 6.2c.7-.2 1.5-.3 2.2-.3 3.3 0 6.2 1.4 8.2 3.6l6.3-4.9c-3.3-4-8.3-6.2-14.5-6.2z"/>
  <path fill="#34A853" d="M14.3 13.1c-2.4 2.1-4.2 5-5 8.3h9.9l4.3-4.3z"/>
  <path fill="#FBBC04" d="M9.3 21.4c-.3 1.3-.4 2.6-.4 4 0 1.4.1 2.7.4 4h9.9v-8z"/>
  <path fill="#EA4335" d="M14.3 34.9c2.4 2.1 5.5 3.4 9.1 3.4 5.3 0 9.5-2.5 12.3-6.2l-6.3-4.9c-1.6 2-4 3.3-6.9 3.3-2.6 0-5-1.1-6.7-2.9z"/>
</svg>
